# xmcd
#
# Track frame offsets:
#	187
#	15515
#	32042
#	50990
#	69745
#	83815
#	102152
#	119672
#	134052
#	147855
#
# Disc length: 2427 seconds
#
# Revision: 3
# Processed by: cddbd v1.5.1PL2 Copyright (c) Steve Scherf et al.
# Submitted via: audiograbber 1.83.01
#
DISCID=9409790a
DTITLE=Alabama - 40 Hour Week
DYEAR=1985
DGENRE=Country
TTITLE0=Forty Hour Week (For A Livin')
TTITLE1=Can't Keep A Good Man Down
TTITLE2=There's No Way
TTITLE3=Down On Longboat Key
TTITLE4=Louisiana Moon
TTITLE5=I Want To Know You Before We Make Love
TTITLE6=Fireworks
TTITLE7=(She Won't Have A Thing To Do With) Nobody But Me
TTITLE8=As Right Now
TTITLE9=If It Ain't Dixie (It Won't Do)
EXTD=
EXTT0=
EXTT1=
EXTT2=
EXTT3=
EXTT4=
EXTT5=
EXTT6=
EXTT7=
EXTT8=
EXTT9=
PLAYORDER=
